<svg xmlns="http://www.w3.org/2000/svg" width="1159" height="234" fill="none" viewBox="0 0 1159 234"><circle cx="40.5" cy="51.5" r="40.5" fill="#D66140"/><circle cx="142.5" cy="51.5" r="40.5" fill="#D66140"/><circle cx="40.5" cy="147.5" r="40.5" fill="#D66140"/><circle cx="142.5" cy="147.5" r="40.5" fill="#D9D9D9"/><path fill="#fff" d="M267.632 157.04H278.432C303.2 157.04 315.584 148.832 315.584 132.416C315.584 121.904 311.336 114.776 302.84 111.032C297.224 108.584 288.296 107.36 276.056 107.36H267.632V157.04ZM268.064 85.112H279.944C300.68 85.112 311.048 77.336 311.048 61.784C311.048 48.248 301.904 41.48 283.616 41.48H268.064V85.112ZM244.52 19.448H283.616C317.168 19.448 333.944 32.984 333.944 60.056C333.944 78.056 325.16 89.792 307.592 95.264C317.096 98 324.584 102.608 330.056 109.088C335.816 115.712 338.696 123.56 338.696 132.632C338.696 163.736 318.464 179.288 278 179.288H244.52V19.448ZM421.304 79.928C411.512 79.928 403.736 83.816 397.976 91.592C392.504 99.224 389.768 109.088 389.768 121.184C389.768 133.28 392.504 143.144 397.976 150.776C403.736 158.552 411.512 162.44 421.304 162.44C431.096 162.44 438.8 158.552 444.416 150.776C450.032 143.288 452.84 133.424 452.84 121.184C452.84 109.088 450.032 99.224 444.416 91.592C438.8 83.816 431.096 79.928 421.304 79.928ZM421.304 59.624C439.16 59.624 453.056 66.032 462.992 78.848C471.92 90.224 476.384 104.336 476.384 121.184C476.384 138.032 471.92 152.144 462.992 163.52C453.056 176.336 439.16 182.744 421.304 182.744C403.304 182.744 389.336 176.336 379.4 163.52C370.616 152.432 366.224 138.32 366.224 121.184C366.224 104.048 370.616 89.936 379.4 78.848C389.336 66.032 403.304 59.624 421.304 59.624ZM552.296 79.928C542.504 79.928 534.728 83.816 528.968 91.592C523.496 99.224 520.76 109.088 520.76 121.184C520.76 133.28 523.496 143.144 528.968 150.776C534.728 158.552 542.504 162.44 552.296 162.44C562.088 162.44 569.792 158.552 575.408 150.776C581.024 143.288 583.832 133.424 583.832 121.184C583.832 109.088 581.024 99.224 575.408 91.592C569.792 83.816 562.088 79.928 552.296 79.928ZM552.296 59.624C570.152 59.624 584.048 66.032 593.984 78.848C602.912 90.224 607.376 104.336 607.376 121.184C607.376 138.032 602.912 152.144 593.984 163.52C584.048 176.336 570.152 182.744 552.296 182.744C534.296 182.744 520.328 176.336 510.392 163.52C501.608 152.432 497.216 138.32 497.216 121.184C497.216 104.048 501.608 89.936 510.392 78.848C520.328 66.032 534.296 59.624 552.296 59.624ZM735.777 179.288H705.537L658.881 129.392V179.288H635.769V7.352H658.881V98.936L700.569 59.624H730.377L673.353 113.408L735.777 179.288ZM874.757 180.152H851.429V108.224H785.117V180.152H761.573V19.016H785.117V86.192H851.429V19.016H874.757V180.152ZM987.631 180.368V168.488C979.855 177.992 969.631 182.744 956.959 182.744C942.847 182.744 932.119 178.496 924.775 170C918.295 162.08 915.055 151.424 915.055 138.032V62.432H938.167V133.712C938.167 152.864 945.151 162.44 959.119 162.44C968.479 162.44 975.607 158.912 980.503 151.856C984.391 146.096 986.335 138.248 986.335 128.312V62.432H1009.23V150.56C1009.23 161.216 1009.66 171.152 1010.53 180.368H987.631ZM1095.3 77.768C1086.22 77.768 1079.17 82.232 1074.13 91.16C1069.95 98.792 1067.86 108.296 1067.86 119.672C1067.86 130.76 1070.02 140.192 1074.34 147.968C1079.24 156.752 1086.22 161.144 1095.3 161.144C1113.87 161.144 1123.16 147.464 1123.16 120.104C1123.16 91.88 1113.87 77.768 1095.3 77.768ZM1067.86 7.352V70.856C1076.65 61.64 1086.58 57.032 1097.67 57.032C1114.23 57.032 1126.69 63.152 1135.04 75.392C1142.53 86.048 1146.27 100.952 1146.27 120.104C1146.27 138.68 1142.24 153.512 1134.18 164.6C1125.25 176.264 1113.08 182.096 1097.67 182.096C1084.57 182.096 1074.63 177.848 1067.86 169.352V179.288H1046.05V7.352H1067.86Z"/></svg>